<mxfile host="Electron" modified="2023-10-27T07:59:31.471Z" agent="Mozilla/5.0 (X11; Linux x86_64) AppleWebKit/537.36 (KHTML, like Gecko) draw.io/22.0.3 Chrome/114.0.5735.289 Electron/25.8.4 Safari/537.36" etag="EkKxYf56rLdCEHo-m7-a" version="22.0.3" type="device">
  <diagram id="SHQ80oH9Ae5s3lnkJknK" name="Page-1">
    <mxGraphModel dx="1434" dy="847" grid="1" gridSize="5" guides="1" tooltips="1" connect="1" arrows="1" fold="1" page="1" pageScale="1" pageWidth="850" pageHeight="1100" math="0" shadow="0">
      <root>
        <mxCell id="0" />
        <mxCell id="1" parent="0" />
        <mxCell id="orel1sS7INE6aTfyxnH8-2" value="&lt;font style=&quot;font-size: 20px&quot;&gt;Harbour Infrastructure Layer&lt;/font&gt;" style="rounded=0;whiteSpace=wrap;html=1;verticalAlign=middle;fillColor=#F5F5F5;fontStyle=1" parent="1" vertex="1">
          <mxGeometry x="200" y="620" width="450" height="130" as="geometry" />
        </mxCell>
        <mxCell id="wsgeFXquW42oURY6neUt-8" value="" style="group" parent="1" vertex="1" connectable="0">
          <mxGeometry x="660" y="620" width="160" height="40" as="geometry" />
        </mxCell>
        <mxCell id="orel1sS7INE6aTfyxnH8-3" value="" style="rounded=0;whiteSpace=wrap;html=1;fontSize=20;fillColor=#FFFFFF;verticalAlign=middle;labelPosition=center;verticalLabelPosition=middle;align=left;" parent="wsgeFXquW42oURY6neUt-8" vertex="1">
          <mxGeometry width="160" height="40" as="geometry" />
        </mxCell>
        <mxCell id="orel1sS7INE6aTfyxnH8-4" value="" style="shape=image;verticalLabelPosition=bottom;labelBackgroundColor=#ffffff;verticalAlign=top;aspect=fixed;imageAspect=0;image=data:image/svg+xml,PHN2ZyB4bWxucz0iaHR0cDovL3d3dy53My5vcmcvMjAwMC9zdmciIHhtbG5zOnhsaW5rPSJodHRwOi8vd3d3LnczLm9yZy8xOTk5L3hsaW5rIiB2aWV3Qm94PSIwIDAgMTE1IDQ0IiBmaWxsPSIjZmZmIiBmaWxsLXJ1bGU9ImV2ZW5vZGQiIHN0cm9rZT0iIzAwMCIgc3Ryb2tlLWxpbmVjYXA9InJvdW5kIiBzdHJva2UtbGluZWpvaW49InJvdW5kIj48dXNlIHhsaW5rOmhyZWY9IiNBIiB4PSIuNSIgeT0iLjUiLz48c3ltYm9sIGlkPSJBIiBvdmVyZmxvdz0idmlzaWJsZSI+PGcgc3Ryb2tlPSJub25lIj48cGF0aCBkPSJNNDQuMDg2IDE3LjE3M2gtMy42ODJ2LTIuMTk4aDkuODZ2Mi4xOThoLTMuNjgydjExaC0yLjQ5NXptOC40NSA5LjIwNGMxLS4wMDUgMS45OTQtLjE1OCAyLjk1LS40NTVsLjM4IDEuODJhMTAuMzUgMTAuMzUgMCAwIDEtMy41NDMuNjMyYy0zLjAzMiAwLTQuMDgtMS40LTQuMDgtMy43MnYtMi41MjZjMC0yLjA0LjktMy44IDMuOTk4LTMuOHMzLjggMS44IDMuOCAzLjg3OHYyLjA2aC01LjM3di40OTNjMCAxLjE1Ni40IDEuNiAxLjg3NiAxLjZ6bS0xLjg5NS00LjA2aDMuMDd2LS40NzRjMC0uOS0uMjc4LTEuNTQtMS40NjUtMS41NHMtMS42MDQuNjMyLTEuNjA0IDEuNTR6bTExLjgzOC0xLjc4NmExOC42MyAxOC42MyAwIDAgMC0yLjUyNiAxLjQxdjYuMjE1aC0yLjQ0NHYtOS42NDVoMi4wNGwuMTU4IDEuMDY3Yy43ODMtLjUzIDEuNjMyLS45NTQgMi41MjYtMS4yNjN6bTUuODk5IDBhMTguNjMgMTguNjMgMCAwIDAtMi41MjYgMS40MXY2LjIxNWgtMi40NDR2LTkuNjQ1aDIuMDRsLjE1OCAxLjA2N2MuNzgzLS41MyAxLjYzMi0uOTU0IDIuNTI2LTEuMjYzem04LjA3MyA3LjYxN2gtMS45NzdsLS4xNzctLjYzMmE1LjI5IDUuMjkgMCAwIDEtMi44NjguODUzYy0xLjc2MiAwLTIuNTI2LTEuMjA2LTIuNTI2LTIuODY4IDAtMS45NTguODUzLTIuNyAyLjgtMi43aDIuMzE4di0xYzAtMS4wNjctLjI5Ny0xLjQ0Ni0xLjgzOC0xLjQ0NmExMy40OSAxMy40OSAwIDAgMC0yLjY3Mi4yOTdsLS4yOTctMS44MzhjMS4wNzYtLjI5OCAyLjE4Ny0uNDUxIDMuMzAzLS40NTUgMy4wMzIgMCAzLjkyMiAxLjA2NyAzLjkyMiAzLjQ4N3ptLTIuNDEzLTMuNjQ0aC0xLjc4Yy0uOCAwLTEgLjIxNS0xIC45NDdzLjIxNS45NzMuOTczLjk3M2EzLjc5IDMuNzkgMCAwIDAgMS44MTktLjQ5M3ptOS44NC04LjJhNy4xNSA3LjE1IDAgMCAwLTEuMzgzLS4xNThjLS45NDcgMC0xLjA4Ni40MTctMS4wODYgMS4xNXYxLjIwNmgyLjQ1bC0uMTQgMS44OTVoLTIuMzE4djcuNzE4aC0yLjQxM3YtNy42ODJoLTEuNTQ3di0xLjg5NWgxLjU0di0xLjM3YzAtMi4wMDIuOTI4LTIuOTg4IDMuMDctMi45ODhhNy42NCA3LjY0IDAgMCAxIDIuMDc4LjI3OHpNODguNTkgMjguMzRjLTMuMzAzIDAtNC4xOTQtMS44Mi00LjE5NC0zLjh2LTIuNDE3YzAtMS45NzcuOS0zLjggNC4xOTQtMy44czQuMiAxLjgyIDQuMiAzLjh2Mi40MzhjLS4wMDYgMS45NjQtLjg5NyAzLjgtNC4yIDMuOHptMC03Ljk3N2MtMS4yNjMgMC0xLjc4LjU3NS0xLjc4IDEuNjZ2Mi41OTZjMCAxLjA4Ni40OTMgMS42NiAxLjc4IDEuNjZzMS43OC0uNTc1IDEuNzgtMS42NnYtMi41ODZjMC0xLjA5My0uNS0xLjY2Ny0xLjc4LTEuNjY3em0xMC40LjE1OGExOC42MyAxOC42MyAwIDAgMC0yLjUyNiAxLjQxdjYuMjE1aC0yLjQ0di05LjY0NWgyLjA0bC4xNTggMS4wNjdjLjc4My0uNTMgMS42MzItLjk1NCAyLjUyNi0xLjI2M3ptNi42NCA3LjYyN3YtNi43MjdjMC0uNTEyLS4yMTUtLjc3LS43Ny0uNzctLjg4OC4xLTEuNzQ4LjM3Ni0yLjUyNi44MTV2Ni43aC0yLjR2LTkuNjQ1aDEuODM4bC4yNC44MTVhOS42NCA5LjY0IDAgMCAxIDMuODYtMS4wMSAxLjgzIDEuODMgMCAwIDEgMS44MTkgMS4wM2MxLjIwNC0uNjE2IDIuNTI3LS45NjcgMy44NzgtMS4wMyAxLjYwNCAwIDIuMTggMS4xMyAyLjE4IDIuODV2Ni45ODZoLTIuNDEzdi02LjcyN2MwLS41MTItLjIxNS0uNzctLjc3LS43N2E2LjM5IDYuMzkgMCAwIDAtMi41MjYuODE1djYuN3oiIGZpbGw9IiMwMDAiIGZpbGwtcnVsZT0ibm9uemVybyIvPjxwYXRoIGQ9Ik0yNC41MzUgMjkuMjA3di0uMDg4bC0xMS42My02LjcxNlYzNS44M2wxMS42MyA2LjcxNnptMC0xNC45OTR2MTMuNDMzbC0xMS42My02LjcxNlY3LjQ5N3oiIGZpbGw9IiM1YzRlZTUiLz48cGF0aCBkPSJNMjUuODEgMjcuNjQ2bDExLjYzNS02LjcxNlY3LjQ5N0wyNS44MSAxNC4yMTN6IiBmaWxsPSIjNDA0MGIyIi8+PHBhdGggZD0iTTAgMTMuNDMzbDExLjYzIDYuNzE2VjYuNzE2TDAgMHoiIGZpbGw9IiM1YzRlZTUiLz48L2c+PC9zeW1ib2w+PC9zdmc+;" parent="wsgeFXquW42oURY6neUt-8" vertex="1">
          <mxGeometry x="75.00207207207211" y="4.997142857142808" width="78.38" height="30" as="geometry" />
        </mxCell>
        <mxCell id="wsgeFXquW42oURY6neUt-2" value="" style="shape=image;verticalLabelPosition=bottom;labelBackgroundColor=#ffffff;verticalAlign=top;aspect=fixed;imageAspect=0;image=data:image/svg+xml,PHN2ZyB4bWxucz0iaHR0cDovL3d3dy53My5vcmcvMjAwMC9zdmciIHhtbG5zOnhsaW5rPSJodHRwOi8vd3d3LnczLm9yZy8xOTk5L3hsaW5rIiB2aWV3Qm94PSIwIDAgOTEgNTQiIGZpbGw9IiNmZmYiIGZpbGwtcnVsZT0iZXZlbm9kZCIgc3Ryb2tlPSIjMDAwIiBzdHJva2UtbGluZWNhcD0icm91bmQiIHN0cm9rZS1saW5lam9pbj0icm91bmQiPjx1c2UgeGxpbms6aHJlZj0iI0EiIHg9Ii41IiB5PSIuNSIvPjxzeW1ib2wgaWQ9IkEiIG92ZXJmbG93PSJ2aXNpYmxlIj48ZyBzdHJva2U9Im5vbmUiIGZpbGwtcnVsZT0ibm9uemVybyI+PHBhdGggZD0iTTU3LjIxNy4wMDNoLTI1YTIuODYgMi44NiAwIDAgMC0yLjg1MSAyLjg1djYuNzJoNi45M1Y4LjQ3NWExLjU0IDEuNTQgMCAwIDEgMS41NDItMS41NDJoMTMuNzQ3YTEuNTQgMS41NCAwIDAgMSAxLjU0MiAxLjU0MnYxLjA5OGg2Ljkzdi02LjcyQTIuODYgMi44NiAwIDAgMCA1Ny4yMDUgMHptLTQuMDggMjEuNTY1YTEuNTQgMS41NCAwIDAgMS0xLjU0MiAxLjU0MkgzNy44NWExLjU0IDEuNTQgMCAwIDEtMS41NDItMS41NDJWMjAuNDdoLTYuOTMydjYuNzJhMi44NiAyLjg2IDAgMCAwIDIuODUyIDIuODUyaDI1YTIuODYgMi44NiAwIDAgMCAyLjg1Mi0yLjg1MnYtNi43MmgtNi45M3ptLTIzLjc2LTEwLjAxMmg2LjkzdjYuOTNoLTYuOTN6bTIzLjc2IDBoNi45M3Y2LjkzaC02LjkzeiIgZmlsbD0iI2RhMWEzMiIvPjxwYXRoIGQ9Ik0xMC4xNDggNDMuNzY1di0uMTc4YzAtMy4yNjItMi4xNC01LjYyLTUuMDQ4LTUuNjItMi45MyAwLTUuMSAyLjQxLTUuMSA1LjY1MnYuMTc4YzAgMy4yNjIgMi4xNCA1LjYgNS4wNSA1LjYgMi45MjguMDAxIDUuMDktMi4zODggNS4wOS01LjYyem0tNy43OTItLjA0MnYtLjEyNWMwLTIuMDU4IDEuMDYtMy41NzMgMi43LTMuNTczIDEuNiAwIDIuNzQzIDEuNTM3IDIuNzQzIDMuNTk0di4xMjVjMCAyLjA1Ny0xLjA2IDMuNTk0LTIuNyAzLjU5NC0xLjYuMDAxLTIuNzQzLTEuNTU3LTIuNzQzLTMuNjE0em0xOC45Ny4wODR2LS4yOWMwLTMuNzItMi4wOC01LjU2OC00LjI4LTUuNTY4LTEuNTggMC0yLjUzNC45MTUtMy4yMTIgMS45NzR2LTEuNzY3aC0yLjM0N3YxNC4xNWgyLjM0N3YtNC44Yy42NjUuOTc2IDEuNjIgMS44NyAzLjIxMiAxLjg3IDIuMjIzIDAgNC4yOC0xLjg3IDQuMjgtNS41Njh6bS03LjU0Mi0uMDQydi0uMjA4YzAtMi4xNiAxLjIwNS0zLjUzMiAyLjYxOC0zLjUzMnMyLjU1NSAxLjM2IDIuNTU1IDMuNTUzdi4xNzhjMCAyLjIwNC0xLjEyMiAzLjUzMy0yLjU1NSAzLjUzMy0xLjQxMi0uMDAxLTIuNjE4LTEuMzcyLTIuNjE4LTMuNTMzem0xNy43MTUgMy45MjZsLTEuMjI2LTEuNDU0Yy0uNzI3LjcwNy0xLjQ5NiAxLjE2My0yLjUzNCAxLjE2My0xLjQzNCAwLTIuNTc3LS45OTgtMi43ODQtMi44NTVoNi44OTdsLjAyLS44YzAtMy4zMDMtMS41OC01Ljc5Ny00LjU3LTUuNzk3LTIuNyAwLTQuNjk2IDIuMzctNC42OTYgNS42NzJ2LjE2NmMwIDMuNDUgMi4yMDIgNS42IDUuMDI4IDUuNiAxLjY0MiAwIDIuODY4LS42NDIgMy44NjUtMS42OTV6bS00LjE5Ny03Ljc2M2MxLjM3IDAgMi4xNiAxLjI2NyAyLjI4NiAzLjAxMmgtNC42NTZjLjE2Ni0xLjg3IDEuMDctMy4wMTIgMi4zNjgtMy4wMTJ6bTExLjQ2NS0xLjk2M2MtMS40OTYgMC0yLjM5Ljg1Mi0zLjAxMyAxLjgzdi0xLjY0aC0yLjM0N3YxMS4wMTJoMi4zNDd2LTYuNjdjMC0xLjUxNy44NTItMi40MyAyLjA4LTIuNDMgMS4yNDYgMCAxLjk3NC44NTIgMS45NzQgMi4zOXY2LjcxMmgyLjM0N3YtNy4zNzZjMC0yLjM0OC0xLjI2Ny0zLjg0NC0zLjM4Ni0zLjg0NHptMTIuODUgOC4wNjR2LS4wMmMwLTEuNzI1LTEuMjg4LTIuNTEzLTIuOTkyLTMuMjgzLTEuMjg4LS41ODItMi4xNi0uOTU1LTIuMTYtMS42ODN2LS4wNDJjMC0uNjAyLjUyLTEuMDcgMS4zOTItMS4wN3MxLjc4Ny40MTYgMi42MTguOTc2bC45OTgtMS43MjVjLTEuMDQtLjc0OC0yLjM0Ny0xLjE4NC0zLjU3My0xLjE4NC0yLjA1NyAwLTMuNjM2IDEuMjQ2LTMuNjM2IDMuMjEydi4wNDJjMCAxLjgwOCAxLjM3IDIuNTU1IDMuMDEzIDMuMjYyIDEuMzEuNTYyIDIuMTYuOTE1IDIuMTYgMS42OTV2LjAyYzAgLjY4Ny0uNTYyIDEuMjA1LTEuNTM3IDEuMjA1cy0yLjAzNi0uNDc4LTMuMDM0LTEuMjg4bC0xLjEgMS42ODNjMS4yNjcgMS4wNiAyLjc4NCAxLjUzNyA0LjA5MyAxLjUzNyAyLjEyLS4wMDEgMy43Ni0xLjE4NSAzLjc2LTMuMzQ2em03LjI3IDIuODI2di0xLjkzMmEyLjY2IDIuNjYgMCAwIDEtMS4yNjguMzExYy0uNzQ4IDAtMS4xODQtLjM1My0xLjE4NC0xLjIwNXYtNS44NmgyLjQ3MnYtMi4wMTZoLTIuNDcydi0yLjk3aC0yLjM0N3YyLjk3aC0xLjIwNWwuMzg1IDIuMDE2aC44MnY2LjMzN2MwIDIuMTQgMS4yMjYgMi44MjYgMi44NTUgMi44MjZhMy45NyAzLjk3IDAgMCAwIDEuOTU0LS40NzZ6bTguOTk1LTkuNzAyYy0uNzA3LS43MjctMS44MDgtMS4xMjItMy4yNDItMS4xMjItMS40NzUgMC0yLjU3Ny4zNTMtMy42MzYuODczbC42NjUgMS44N2MuNzI3LS4zMzIgMS42LS42NjUgMi42Ni0uNjY1IDEuNDk2IDAgMi4zNy43NyAyLjM3IDIuMjQ0di40NThjLS43NDgtLjI1LTEuNDk2LS40NDYtMi41MzQtLjQ0Ni0yLjMyNyAwLTMuOTA2IDEuMTYzLTMuOTA2IDMuNTMydi4xMDRjMCAyLjE0IDEuNTM3IDMuMzY2IDMuMzY2IDMuMzY2IDEuNDM0IDAgMi40MS0uNjI1IDMuMDU0LTEuNTU4djEuMzVoMi4zMDZ2LTYuODM2YzAtMS4zNzItLjM3NS0yLjQ1NC0xLjEtMy4xOHptLTEuMTYzIDYuMzE3YzAgMS4yNDYtMS4wNCAyLjE2LTIuMzkgMi4xNC0xLjAxNy0uMDItMS43ODYtLjY0NC0xLjc4Ni0xLjc0NXYtLjA0MmMwLTEuMTYzLjgtMS44NSAyLjE0LTEuODVhNS4zIDUuMyAwIDAgMSAyLjAzNi4zOTR6bTEyLjI0NCAyLjI2NWwtMS4yNjctMS41NThjLS42NDQuNjQ0LTEuMjg4IDEuMTIyLTIuMjQ0IDEuMTIyLTEuNiAwLTIuNzItMS40MzQtMi43Mi0zLjU3M3YtLjEwNGMwLTIuMDggMS4xMjItMy41NTMgMi42Ni0zLjU1My45OTggMCAxLjY0Mi41IDIuMjIzIDEuMWwxLjMxLTEuNzI1Yy0uOTE1LS45MTUtMS45NjMtMS40OTYtMy41MzMtMS40OTYtMi44ODggMC01LjAyOCAyLjM3LTUuMDI4IDUuNjUydi4yMDhjMCAzLjI4MyAyLjA4IDUuNTkgNC45NDUgNS41OSAxLjY4Mi0uMDAxIDIuNzg0LS42ODcgMy42NTYtMS42NjJ6bTUuNTI4LTIuNTEybDIuMiAzLjk0NGgyLjcybC0zLjI4My01LjcxNXptLTEuNzE2IDMuOTQ0di0zLjE3Nmw2LjU0Ni03LjgzNGgtMi43ODRsLTMuNzYgNC44NHYtOC44NGgtMi4zNDV2MTV6IiBmaWxsPSIjNGU0NTQwIi8+PC9nPjwvc3ltYm9sPjwvc3ZnPg==;" parent="wsgeFXquW42oURY6neUt-8" vertex="1">
          <mxGeometry x="9.999699699699704" y="5.000000000000045" width="50.57" height="30" as="geometry" />
        </mxCell>
        <mxCell id="wsgeFXquW42oURY6neUt-13" value="" style="rounded=0;whiteSpace=wrap;html=1;fontSize=14;" parent="1" vertex="1">
          <mxGeometry x="755" y="390" width="65" height="220" as="geometry" />
        </mxCell>
        <mxCell id="wsgeFXquW42oURY6neUt-1" value="" style="shape=image;verticalLabelPosition=bottom;labelBackgroundColor=#ffffff;verticalAlign=top;aspect=fixed;imageAspect=0;image=data:image/svg+xml,PHN2ZyB4bWxucz0iaHR0cDovL3d3dy53My5vcmcvMjAwMC9zdmciIHhtbG5zOnhsaW5rPSJodHRwOi8vd3d3LnczLm9yZy8xOTk5L3hsaW5rIiB2aWV3Qm94PSIwIDAgMTExIDM3IiBmaWxsPSIjZmZmIiBmaWxsLXJ1bGU9ImV2ZW5vZGQiIHN0cm9rZT0iIzAwMCIgc3Ryb2tlLWxpbmVjYXA9InJvdW5kIiBzdHJva2UtbGluZWpvaW49InJvdW5kIj48dXNlIHhsaW5rOmhyZWY9IiNBIiB4PSIuNSIgeT0iLjUiLz48c3ltYm9sIGlkPSJBIiBvdmVyZmxvdz0idmlzaWJsZSI+PGcgc3Ryb2tlPSJub25lIiBmaWxsLXJ1bGU9Im5vbnplcm8iPjxwYXRoIGQ9Ik0zNS43OTggMTcuODk3Yy0uMDAxIDkuODg2LTguMDE1IDE3Ljg5OS0xNy45IDE3Ljg5OUExNy45IDE3LjkgMCAwIDEgMCAxNy44OThDMCA4LjAxMyA4LjAxNCAwIDE3Ljg5OCAwczE3Ljg5OCA4LjAxNCAxNy44OTggMTcuOSIgZmlsbD0iIzFhMTkxOCIvPjxwYXRoIGQ9Ik0xOC4yIDEwLjkzM2w0LjYzMiAxMS40MzItNi45OTYtNS41MXptOC4yMjggMTQuMDY1TDE5LjMwMyA3Ljg1MmMtLjIwMy0uNDk0LS42LS43NTYtMS4xMDQtLjc1NmExLjE4IDEuMTggMCAwIDAtMS4xMzQuNzU2bC03LjgyIDE4LjgwN2gyLjY3NWwzLjA5NS03Ljc1NCA5LjIzOCA3LjQ2M2MuMzcyLjMuNjQuNDM2Ljk4OC40MzYuNjk4IDAgMS4zMDgtLjUyMyAxLjMwOC0xLjI3OCAwLS4xMjMtLjA0NC0uMzE4LS4xMjItLjUyOHoiLz48cGF0aCBkPSJNNjAuMzMgMjMuMjUxYy0uMTg1IDAtLjM4NC0uMDQ3LS41MjMtLjIzNGwtNS45MzMtNy44MDJ2Ny45NThoLTEuMzUzdi05LjhjMC0uNC4zMjMtLjcwMi42OTItLjcwMi4yMTUgMCAuNC4wNjMuNTM4LjI1bDUuOTE3IDcuNzg2VjEyLjc4aDEuMzUzdjkuNzg0YS42OC42OCAwIDAgMS0uNjkyLjY4N203LjgyOC4wOTRjLTEuMzUyIDAtMi43NjctLjI4LTQuMDg4LS43OGwuMzIzLTEuMTIzYzEuMjE0LjQgMi41MzYuNjcgMy43NjUuNjcgMS43MDYgMCAyLjU5OC0uNjA4IDIuNTk4LTEuNDY2IDAtLjc4LS42OTItMS4xNy0zLjA3NC0yLjI5NHMtMy4zMi0xLjg0LTMuMzItMy4yNDVjMC0xLjc2MyAxLjM1Mi0yLjQ4IDMuOTA0LTIuNDggMS4wNiAwIDIuNy4yMiAzLjYyOC41bC0uMjE1IDEuMTU0YTE1LjQxIDE1LjQxIDAgMCAwLTMuMzgyLS40MmMtMS43OTggMC0yLjUzNi4zNDMtMi41MzYgMS4yMDIgMCAuODQyLjUzOCAxLjIgMy4wNTggMi4zNzIgMi42NiAxLjIzMyAzLjMzNSAxLjg1NyAzLjMzNSAzLjEzNyAwIDEuODU3LTEuNzUzIDIuNzc4LTMuOTk2IDIuNzc4bTcuMDQ0LTEwLjU4N2gxLjM5OHYxMC4zOTJoLTEuMzk4em0xMC43NCA1LjU2NWgtMy40NzR2My41MjdoMy40NzRjMS4xODMgMCAxLjkwNi0uNzUgMS45MDYtMS43OTUgMC0uOTgzLS43NTMtMS43MzItMS45MDYtMS43MzJtLS42NzctNC40OTRoLTIuNzk3djMuMzI0aDIuNzk3YzEuMTIyIDAgMS45MzctLjcxOCAxLjkzNy0xLjcxNyAwLS45ODMtLjcwNy0xLjYwNy0xLjkzNy0xLjYwN20uNjkyIDkuMjA2aC00LjE4Yy0uNCAwLS43MDctLjMxMi0uNzA3LS43MDJWMTMuMzVhLjcxLjcxIDAgMCAxIC43MDctLjcwMmgzLjQ1OGMyLjEyIDAgMy4zOCAxLjA0NSAzLjM4IDIuNjg0IDAgLjktLjUyMyAxLjcxNi0xLjMyMiAyLjIgMS4xODQuMzYgMS45ODMgMS4zNDIgMS45ODMgMi41MjggMCAxLjY1NC0xLjM2NyAyLjk4LTMuMzIgMi45OG03LjQtLjExNWMtLjM4NCAwLS43LS4zMjgtLjctLjcwMnYtOS43aDEuNHY5LjEyOGg1LjU4M3YxLjI2NHptMTIuNzk3LjA1N2MtMi44NiAwLTQuNTgtMS4wNi00LjU4LTMuMiAwLTEuMDE0LjU3LTEuOTgyIDEuNjc2LTIuNDM0LS45LS41NjItMS4zNTMtMS4zNTgtMS4zNTMtMi4yMzIgMC0xLjkzNSAxLjQ5Mi0yLjg1NiA0LjMtMi44NTYgMS4xMzEuMDA1IDIuMjU5LjEyNSAzLjM2Ni4zNTlsLS4xNTQgMS4xNTVjLTEuMTY4LS4xODctMi4yNi0uMjk2LTMuMzItLjI5Ni0xLjgxNCAwLTIuNzgyLjUtMi43ODIgMS43IDAgLjk1Mi44OTIgMS43IDIuMDc2IDEuN2gyLjM5OGEuNTkuNTkgMCAwIDEgLjU5OS41OTNjMCAuMzQzLS4yNi42MDgtLjYuNjA4aC0yLjU4MmMtMS4zNTMgMC0yLjIxMy42Ny0yLjIxMyAxLjcgMCAxLjUxMyAxLjM5OCAxLjk2NiAzLjE1IDEuOTY2Ljk1MyAwIDIuMjQ0LS4xMjQgMy4zLS4zNzRsLjIgMS4xMzhhMTMuNjEgMTMuNjEgMCAwIDEtMy40NTkuNDY5TTQ0Ljg3MSAxNC44MmwyLjQ1IDYuMTM4LTMuNy0yLjk2em00LjM1MiA3LjU1MmwtMy43NjgtOS4yMDZjLS4xMDgtLjI2NS0uMzIzLS40MDYtLjU4NC0uNDA2YS42My42MyAwIDAgMC0uNi40MDZsLTQuMTIyIDEwLjM3MyAxLjQtLjI3NiAxLjYzNy00LjE2MyA0Ljg4NSA0LjAwN2MuMTk3LjE2LjMzOC4yMzQuNTIzLjIzNGEuNjguNjggMCAwIDAgLjY5MS0uNjg3LjkzLjkzIDAgMCAwLS4wNjQtLjI4M3oiIGZpbGw9IiMxYTE5MTgiLz48L2c+PC9zeW1ib2w+PC9zdmc+;direction=north;" parent="1" vertex="1">
          <mxGeometry x="762.5" y="420" width="50" height="150" as="geometry" />
        </mxCell>
        <mxCell id="wsgeFXquW42oURY6neUt-14" value="&lt;span style=&quot;font-size: 20px&quot;&gt;Customization - Drop-in Plays&lt;/span&gt;" style="rounded=0;whiteSpace=wrap;html=1;verticalAlign=middle;fillColor=#F5F5F5;fontStyle=1" parent="1" vertex="1">
          <mxGeometry x="200" y="390" width="545" height="55" as="geometry" />
        </mxCell>
        <mxCell id="VvVo33ZZ8-Vyx2JdQkhz-3" value="yaook/&lt;br&gt;metal-controller" style="rounded=0;whiteSpace=wrap;html=1;fontSize=14;fillColor=#FFFFFF;verticalAlign=middle;fontStyle=0;align=right;spacing=5;" parent="1" vertex="1">
          <mxGeometry x="660" y="710" width="160" height="40" as="geometry" />
        </mxCell>
        <mxCell id="VvVo33ZZ8-Vyx2JdQkhz-2" value="" style="group;spacing=0;verticalAlign=middle;" parent="1" vertex="1" connectable="0">
          <mxGeometry x="660" y="710" width="160" height="40" as="geometry" />
        </mxCell>
        <mxCell id="VvVo33ZZ8-Vyx2JdQkhz-1" value="" style="shape=image;verticalLabelPosition=middle;labelBackgroundColor=none;verticalAlign=middle;aspect=fixed;imageAspect=0;image=data:image/png,iVBORw0KGgoAAAANSUhEUgAAAzEAAAJqCAYAAAAbqM4AAAABhWlDQ1BJQ0MgcHJvZmlsZQAAKJF9kT1Iw1AUhU9bS0UrDhYREcxQnSyIijhqFYpQIdQKrTqYvPQPmjQkKS6OgmvBwZ/FqoOLs64OroIg+APi6OSk6CIl3pcUWsR44fE+zrvn8N59gL9eZqrZMQ6ommWkEnEhk10VQq/wIYhu9GNYYqY+J4pJeNbXPXVT3cV4lnffn9Wj5EwG+ATiWaYbFvEG8fSmpXPeJ46woqQQnxOPGXRB4keuyy6/cS447OeZESOdmieOEAuFNpbbmBUNlXiKOKqoGuX7My4rnLc4q+Uqa96TvzCc01aWuU5rCAksYgkiBMioooQyLMRo10gxkaLzuId/0PGL5JLJVQIjxwIqUCE5fvA/+D1bMz854SaF40DwxbY/RoDQLtCo2fb3sW03ToDAM3CltfyVOjDzSXqtpUWPgN5t4OK6pcl7wOUOMPCkS4bkSAFa/nweeD+jb8oCfbdA15o7t+Y5Th+ANM0qeQMcHAKjBcpe93h3Z/vc/u1pzu8HHdlyhSmiUwIAAAAGYktHRACoAPwA/LHBW6sAAAAJcEhZcwAAD2EAAA9hAag/p2kAAAAHdElNRQfmAQULGAH/PsyTAAAgAElEQVR42u3dWXIby9WoUYDBSXgGR+Kzp+HBehp+JqUZeBjwg8RjiY1IFLLZzVoRjvjjxj1qClWZ+0MC1OkEAACQyNkloLGL5wIAQMRA5njxfAAAiBhIGzCeEQCAoO5dAsQLAACZeJcZAeM5AQBI5c4lQMAAACBiQMAAADCJj8kgYDwrAACp+GI/oyLhHPTPBQBAMd5dZnQgnIP/+TwrAAAiBgET4t66eFYAAHrwxX4iBEL1Px8AACIG4VP29wEAQMRQeHgXFgAAIgbSRIaAAQAQMZAmFAQMAICIAQEjngAARAyICAAARAxtY0HAAAAgYhALAACIGARM9T+XyAMAEDEgGgAAEDHUiAUBAwDAK2eXgAWxcA74Z/LsAAAk5SQGJzAAAIgYAAAAEcMMTmEAABAxCJgmASO2AABEDAIGAABEDDFiQaAAACBiKBUTF9cTAAARg4ABAEDEgIARYQAAIgaDNgAAiBgSBIywAgDgkLNLIGA23G8XzxIAAEc5iREwAAAgYhAwDeNKNAIAiBgM0wAA8JrP8YsYPFMAAKk4iREwAACQineNBQyeKwCAVJzECBgAAEjFO8YCBs8WAEAqTmIEDAAApOLdYgGD5wsAIBUnMQIGAABS8U6xeMEzBgBgwELA4FkDADBYCRg8cwAAGKgEDJ4/AABDFAIGzyEAgOFJwOCZBADAwCRg8GwCABiUEDB4TgEADEcCBjyvAACGIvGC5xYAwDCEgMHzCwBgCBIw4DkGADD8NIiXy+X/v8X57GX2PAMAGHpIEjBCxnMNAGDYIWzAvBUvYsbzDQBgyCFtwAgZzzkAgOGG7fFybcCIGc87AIChhpQBI2Y88wAABhqWxsuogBEynn0AAIMM6QJGzFgDAAAMMOIlZcAIGesAAIDhRcCkihcxYz1wCQAAQ4t4SRswYsa6AABgWBEwKQNGzFgbAAAMKuIlXbyIGWsEAIABRcCkDRgxY50AADCciJeUASNmrBcAAIYS8ZIyYASNNQMAwEAiXmrcWGLG2gEAYBARMGIG6wcAgCFEvAgarCEAgAFEvAgYIWMtAQAweIgXIYP1BADgdDqdTndN40XAQJE3BgCAfjq9c7ptwBIvb9x4TmOsLQAAB3U4idl28iJgaMyNDwBMU/nd0q1D1M54+ee///v3//2ff/0j7s3nNMYaAwBgwNgfLzsC5tdo+UikqBEx1hkAgO7DRbt4uTZgIsaMkLHeAAB0GyrCfO4+8umLkMGaAwAYKMTLtngZFTCRQkbEWHcAAK6R6aeTXU6bf9LYy3ip8JPHRgZRphBk+7MMAHDYvWEn18AdITpg0LPtRAYAOCTiEBHyXdoIpwUzA8bHyrAGAQBZRDmJCfvxEh91gunPvpABAK6y6zsxl1Ow77gIGNebrSHjxQcAQkZM+Gj5dZjuNlD7rg1BYgYA4EMzP06WbiCJHC5dIuNyufhujJBxAwAASyMm5TupPsYkZBAyAECfiEk9/YsXEDIAQI+IES4seZ2cxrgNhAwA8JZrv9iftgCyf1k/wr/jAptCBgDgcMSk/b6L05eckeR1Q8gAALdETMqfNGYILjC9eg0RMgDAC5/9vHmKAaLDwDvjRy1n+Kia78dw5ZoFABR2V+Uv4h372ry+PN8KLgEA8Jl3NUMPDR2H25GnMZl+YIDTGK5cuwCAolKfxHR9d35UeGT7iWdOY/j1dnAJAEDECJhmIZP1RzYLGQAAUn6x3yD7u2s+Xlbl35vx0TKuXMMAABEjYLLFTLV/LFPEIGQAwOafImIEDEIGIQMAXLPxby0IAYOQQcgAAKdTki/2CxjcG3zmdnAJAEDEvLTlXU5DKiBkAICjEbMtZEDoImQAgKMRYzjFvQIAwFZHT1amT4yGUg7d0L7oz+3rGwAQXMiTGAGDe4cRt4NLAAAi5lfT3uE0hAJCBgCYETECBhAyAEC6iBl6GiNgAACA2REjYIAsLDIAUMiI05Qhw4GQYcgN7aeTMX/NAwA2C/OdGMMnsIB3SwBAxPzoD5cRAADIFDHDOI0BFnAaAwAi5kd/uJSAkAEAVhgdH77kz76b2Uke+9dAAGCBO5cAAADoHDFD3tX0jjqwiGNfABAxA2tIyABCBgBYFDHqA9ELAECqiDGYAtk4jQEAEeM0BhAyAECuiBkWMk5jcI8AALAqYgypQDZOYwBAxPhYGSBkAIBcETOuhpzGAAAAp3UnJcPe2bxcvEmKuKXU+ggAXGnVSYxhAAAASBUx42rIO+/AGo59AUDEOI1B0CJkAIBcEWN4BQAAbu+BDb+nL/kjZLFWAgCH7TiJMQwAAACpImZcDXk3HljDsS8AiJhxpzFCph+vOQCAiAHgY05jACCI3W9p+5I/192wTmGwbgJAe7tPYnysDAAASBUxANk49gUAEeM0Bq8vAAC5IkbIANk4jQEAEQPiFACAfBHjNAbIxGkMAIiYwUUkZLyWAACImBXzqpcEAADIGA3+EUx+3KBOYbCOAgAvlP9ivyEYAACKzfiB/2xbj1Cc4AhQKLKWAoCNt1PICCERAyIGAGy8rSJGCAkYrKcAQM9N13FGs8ARMFhPAYAKm66QaRQzIgZrKgDwJ1l+OpnBoMsEKGAAACgSMRj8IQOnxgAgYn6f1b1cYgwAALKdxJhyiwaAgAEAoGrEAETnI2UAIGJe8ZZ9MU5hAACoHjFCRsBAdE5jAEDEAAAA5I+Y88mJTGpOYSjOaQwAiBgxI2AAAOB0uq80Fx/4b7xTCgAAIqZ8+AigWy+6Uxj6iLBOeOAAEDEIIAEDbUPKAwyAiBFAveJGwEDbIPLwAyBiEDBAyfixUAAgYhAwQKnYsZgAIGIAKBM5AgdAxMAYTmEAgQOAiEHAAIwJHIsUgIgBAQOIGwBEDAIGIELcWNgARAwCBkDYACBiEDAAwgZAxICAAbghbCyOACIGAQMgagBEDAgYAFEDIGIQMACIGgARg4ABEDUAiBgEDICoARAxCBgARA2AiEHAACBqAEQM4gVA1ACIGAQMACGjxoIOiBgEDACCBkDEIGAAEDQAIgYBA8Ang0bUACIG8QJA6qixMQAiBgEDgKABEDGIFwAEDSBiEC8AIGgAEYOAAUDQAIgYxAsAggbo5s4lEDAAMCloLi4DMIOTGPECALNj5u9tyeUARAziBQBBA7Tj42QCBgB2BY2PmwHH5l2XINyCDgDmEgCLhYgBAPMJYJFAxACAWQWwMIgYlwAAzCyABUHEAID5BbAIIGIAwBwDePgRMQBgpgE88CIGAMw2gAcdEQMAZhzAA46IAQCzDuDBFjEAgLkHPMyIGAAw/wAeYkQMAJiDAA+viAEAzEPgoUXEAIC5CPCwImIAwHwEeEhFDABgVgIPJiIGAMxMgAcSEQMAZifAgyhiAAAzFHgAETEAgFkKPHiIGAAwUwEeOBEDAJitwIOGiAEAzFjgAUPEAIBZCzjgziUAAJjGG5QwgXcHLHQAgLkLPEyIGADA/AUeIhEDAJjDAA+PiAEAzGPgoUHEAADmMvCwiBgAwHwG/OBHLAMAxOJNTVD6Fi0AwKwGHgxEDABgZoNNfJwMACA+b3SCqrdAAQDmN/AQIGIAAHMcLODjZAAAOXnzEwWPxQgAMNNBBk5iAADy80Yoqh0LEABgvgM3OSIGADDnwQA+TgYAUJM3R1HoWGwAADMfuKERMQCA2Q+u5ONkAAB9eMMUNY6FBQAwB8JqTmIAAHry5ikKHIsJAGAmBDesiAEAMBvCCz5OBgDAM2+ooraxeAAA5kQYzUkMAABv8cYqChsLBgBgZoQRnMQAAPARb7KiqrFITLt4lx+X73x2awOA+RE3ISImScD8doOLGQAwQ+IGRMRkiBchAwBmSerynRhKB8xn//8AAMe2YpcA9YzFYGC8vLrZncgAgJkSNxwiJkvACBkAMFviRkPEpIoXIQMA5kvcZAiZlAEjZADAnImbCxGTKl6EDACYNXFjIWLSxYuYAQAzJ7n5Ecu0Dpgdvx8AdNzeXQJUsQddvMx4GJzIAIDZEzcSIiZDvAgZADB/4iZCxKSLFyEDAGZQ3ECImHTxImQAwByKmwcRkzJgxAwAmENx8yBiUv8EMCEDAGZR3Dg0CpkqP75YyACAWRQ3DsUjpuK/vSJkAMA8ipuGghHT4R+OFDMAYB7FTUPyiOn4L94LGQAwk+KGIWHEdIwXIQMAZlLcMCSMmO7xImQAwFyKm4UkISNexAwAmEtxs5AiYsSLkAEAsyluFMJHjHARMgBgNsWNQviIES5CBgDMp2Rw7xIgXgAAULoMbQzhkuiBcgoDAGZUpnMS06mGhAsAACqXFe0hXJI8TE5hAMCcyhJ3LgEAACBiCMPpgOsMAEn5OAkiJvN87BIAAICIgXGV6RQGAGZxGoOIMWQDAICIAYEIAMzkNAYRAwCAkEHEMJ+3+yO+KE5hAABEDAZuAIB3OI1BxAAAACKGuRylRHoxnGwBwA5OYxAxBm8AABAxIAYBgJmcxiBiss3PLgEAACKGXhXkFMH1A4D8nMaIGAAAEDKIGAAAABHD6XTyvZh9F95HyQAgGqcxIgbDOAAAiBgQfgDATE5jRAxZZmqXAAAAEUOvCnKyAADU4TRGxACCDwCEDCKGCbO14RwAABEDCD0AyMtpjIgBAAAQMYzlI2UAMMDlcjldLt7Er/JyugQiBvoWosADaBMwb/3fCBlEDIZ1AAgXL6IFRAybGsQlAIBx8SJs6rzULkFd9y4BvFGGTqcASsYLUGRWcwnqrM0WdxEDwLi9zV5g3iUuJzFg0wIQL5S+HYRMPb4Tg+EdgFLxMipghBDE5SSmUIOcfIENgKbhAh/dJienMaU4iQEA0sbL7IARSCBimO/mdxh8pAwA8ULVW8clqMPHyQCAFOGy8/f2Jl+pkPFiFuAkhlcs1ABEihenLsCredUlqLnmj9g0xJzHA2BnvNgXMAPzHicxvLtQP31/ar+BijmA9euutZcVt5tLoEIp+nA+fnt89f/29a+v7eMOgPHxYh/AHIwXjyER817IiBqbGEC3eLH+m4XxwlEoYroHjc0MoEe8WPvNw3jRKBwyXYPGhgZQO1ys+eZhvGg0iJiuUWNjA6gZLtZ7MzFeMJqGTKegsbkBwsU6j7kYLxaFIqZT1NjkAOEiZDAX48WiaMhUDhqbHCBeRAxmY7xQFI4YMQMgXKztmI/xIpE2ZKoGjQ0PEC7WdMzHeJFYGDG7QqZi0Nj4AOFiPceMzDH3LkGrhzH9jvT0/alMzFwuFxsfIFwg6OMgZFQmsR7IIXaexrxUIWjEDCBcrOOYlfk8JzH9HsRyu9Xz6UzmoHkeImyCgHABUJe8sXeN+oUinca8JfMJjZgBhIu1G/MyXhSahkzmmLEZAuLluKfvT8vXf+u2mRkvCElCJkPEZA8amyIgXD4fLrvXfWu2mRkvCAkiJmPIiBlAuNSPl53rvfXa3IwXgwQhkzFissaMjREQLZ+Ll51rvbXa7IwXggQRkz1kxAwgWmrGy8413jptdsYLgZARMzZJEC3CJdX6bn02PzOXfycG3tgks8TM5XKxUYJoES/WZxa/vEJGSRLnYRyiwmnMS1mCxmYJokW4xFrPrctmaLwACBkxY8ME4SJc0q3j1mVzNC4+IkbM2DRBtIgXIYNZGhceIVM1ZmyaIFqEi4jBPO2iI2SEjJgBREvSeBEymKdddESMiEkWMzZPEC3dw2X3mm0dNlPjgiNkxIxNFESLcEm3VluDzdW42CSJmK4hEzlmbKIgWDrHy8512vprtsaFRsjYIG2kIFaES7o12vprvsZFJlHIdI0YMQOCRbhYn6295mtcZJJGjJCJGzM2U8QK3cJl99ps3TVj4wIjZGyYNlTECsIl3Zps3TVn4+IiZGyaNlXECsIl1ZpsvTVr48KSLGKETOyYsbEiVESLtdh6i1nbhUXIiJh0MWNjRagIF+uw9RbztouKkBEyYgYBg3Cx/lpnzdy4oAgZG6kNFhGDaBEymLtdTFgcMUImR8zYYBExwsXaa43F7O1CImSETLqYsckiYESLNdcai9nbhUTIiJh0IWOjRcQIF2uutRXzt4uIkBEyKWPGZouIES7WWmsrZnAXEBEjZIQMAgbRYq21tprDcfEQMjZYmy0iRrggYjCHu3ggZGyyNlxEjGixxlpXMYu7cAgZISNmEDGCBeurNdU8jouGkLHRChkEjGBBxGAmd8FgfcQImXwxY+MVMYIF66r1FHO5i4WQETJCBhEjWGi6plpPzeW4WAgZm66NFwEjWEi1plpLzea4UAgZG6/NFxEjWLCWYj53kUDI2HxtvuSJGMGyxsOXhyW/z479wFqKGd0FQsgIGTGDiBEsjaKjStD4WBnmdBcHISNkhAwCRqyIklT7gjUUs7oLg4gRMs1ixiYsYkSKMBEy1lDM6y4KQkbICBlSR4xIESkZ9wURg5ndBUHICBkhQ+GIESlCRchYPzGzuyAIGSEjZGg3LAoVot6XQgZzu4uBkDFMNYwZG7FhUaggZKydmN1dCISMkBEyiBjBwsL702kM5ncXASFjqBIyGBIFC0LG2okZ3gWgZ8iIGSGDiBEsVA8Z66Y53l8ehAwBNmYbsuFQrJD1XnUag1neXxwhI2SEDIZCwUK6+1XIYJ73l0bICBkhg6FQtCBkrJmY6f2FETIIGfI+U6KFDPet0xjM9f6yCBkx0zxmbMq9h0HRgpCxZmKuFzEIGSEjZAj9HIkWM8bKfaFiyFgvEw06l8uM16zNDeBOR8ggZNj2/IgWM0HlkHEaw2ciRsj4SyJkxIyQIXjEiBZ7fLR9wcfKiBAxQsZfEDEjZIQMgSJGtNi3hYyPlfG5iBEy/nLYtIRM8ZixOceOGOFiX864H/hYGREiRsj4i2HjEjNChkXPiWix/woZIcO4iBEyFlFsXEJGyIA91n4gZKyV6SJGyFhgsXGJmcIhY2PGPkqmkBExXBMxQubP7txCGBz+zEdljnv6/rR9A4DB687L/yEkw6yJ1sqeobMz+D34kOSBdCpzjBMZ7I9k2w98rIxIgeJE5jUnMVQYNJzKBOdEhiTriBMWSq/31kqv3Yzg37lwQ5lnfOVv5lTmek5ksO+RbR/w/RiihMmE1y71zeBOxgYmZIQMggX7gJAheMQIGQs8NjExI2QQLNgDhAzpIkbIWPSxiYkZIYNowR6wfY3fFTHWybwRI2R+8MV+DDkD+eL/5/myPweeZ1+8Z+seMGON3/Vjl+kbQKuiX8TAmMFnaciIGZs3ogWir4Xe7BEymUPGxkCr533Hb+ojZh+b+XEKH5ewH2Htz7Cu+1iZCAn0+qW4Idy12MzEjJDBHoS1X8i4S5JGTNeQccdiQxMzQgZ7Dtb95iFjjcwdMR1Dxh2LDU3MCBnsM1j3g6zlTmNEjJCxuUD4mBEyQka0gJARMkJGyNhsIF3ICJq1m7gN2l4CQsY6WTliuoSMuxTEjJDB/oH1Ptj6LWJEjJCxCUG6kBEzQka0QM61XsgQJWKqh4w7FMSMkMEegXVeyFgjC0ZM5ZBxd0KSmOkeNELGvgBCRsgIGSHz7M6tA3mGuocvD21fhKfvT+7E+fe5aQVrvPV6+YBNytfxUvLBhcrrQJQ/SNdTmRnvSDZ+p9EeAJPX91FrtdMYgRH0tdx2cziJAUNfKjNOZJq903g+OXWBZev7qBOZnafRTmME0+r4N5DB5LVg9x/Ad2QGL4h132201sPmtd2JDJEiscKJjJMYuO2BtaJv4jsyn74/3aMQYBhzIkOkOKxwIiNiQMwImVobtPsRiofMTkKmjuwhI2Ig8fDY+aeV2aDfvPfECzQImd0n0ULGnhchZEQMFIiZzpp/0d+9BkJGyFS40TZ+32hSyEy/QUQMJNv8mL+ZB//yqlMXEDIhQoY6JkXp1JARMWDgFDI/w+X5f8HvJUDIhAgZpzFCZicRA4bQ1iGTJFzcNyBkhEz1GyzAXpTpOzIiBpLHjC/3H9vMnboAlUKm2OCLkBEx0CVm+FzIiBcgoltDxhf9iwwGQfanDCEjYiDG4MqCjSFovPjIGFizhQzhRH89RQxQ0vNmniBeACEjZOgQMkN/MREDlPTw5SFivDh1ASFTPmS48cYKtndFDRkRA8U3w47xEvBLssIFrN1LQ6bQ0IvX1OAE0deIW/7jx2+P7eNFnAIZ1+9Za/vXv77uXQDPlsCKMTjodb35F3ESA6SPl2AB4yNj0E/IExnfj6Hy6ypiAPEyNl4AISNkhMztN1Ttk6ybbwwRA6QMGPECCBkhQ9/X1MYLwdaFo/9hh+/EBIwXgKFr+cy13ndkBEPA1/TwL+AkBgz4XLfYOnkBpg1m1noElogBRNroeAFIGzI+Vpb0RvLdGBEDIF4AISNkhEz+11TEAIgXIGnIHIkZIYMHC5iyvt/yH1f8gv/Cj5JZE4Gw6/votd8X/RPeQDW/5H/oP3QSA+DkBVi31kyR8Qv/TmSE3y1EDBDexNMl8QK0DZndHysTMjzfBiIGQLwAQkbIVL55gp7GrH4dRQw02twQL4CQETJCpgIRA8VU/YfQKv7AAsAsKmSEjJARMQAf7pEuASBkhAwiBgCAwCGT7YReyFxx4zQ+jRExQBo+UgYImeMx8xkRTmOEjJARMdB0M6v6vZhRe6NLAAgZISNkRAzAMk5jACEjZBAyIgYAQMgIGSEjYgCCsyMCGUJm+xf+hYyQETHAkQ3spg2qKh8pA+wF42JGyAgZEQOQh90QEDJCRsiIGIB1nMYAQkbIECdkVkeTiAEAEDJCRsikuq9FDBTesPx7MR/vgy4BIGR+3zc+2juETM6QqfbxMhEDpOUjZYCQmRczQqZmzGT6dUUMAICQKRkyxA8OEQMwnrfxgMwhs/V7MhFCxmnMsZDJHjNnLyPUH7Srf+xqwHd/rIVA633i1r3k619fQwzmrI/AG6/74f/YSQwAQH5bP17mRCbxjXNDhOwMRxEDACBkbg6ZCITM8RjJdpLl3A1y8HGy+Rur9RCwZ9y4t0T4WNmvgznzYnDA9b3pF3ASAzn492IAWLJn3LK3RPqJZU5l5gVghEAUMQAANUNmy8fLhEydkJkYK+ftvwCwbi2+5T/2kTJrImD/mOnlPuOjZcVuop9BOOha3vyLOIkBAKhty8fLnMgUu4nGncwM+UVEDDTZhHwvBsAeImSoQsQAAPQJmSXfk/k1ZoQMM2JaxABlDPjej90NMEgOjBkhwywiBhrxkTIAhIyQqXDPiRiw6QBgT5kaMs8xI2TcayIG4A0dfpQ0QLaQeY6ZiCEjZnLeYyIG4MWe5hIADYfMpR8vixQyzzFDrkgWMdBsQfC9GABWD5wv96GHLw9CBhEDAECekHmOGSHjXhIxAD/5XgzAzcPnslOZQf8KvJBpFsMiBhrykbKP9zCXAGDdqYyQcd+IGLBAAEDKkIkUM0Lm0L2y7AUUMQAAhBlOhYzYDfkbAuPW1lt/gerfHbnxY3PWR4AJe0/GiIj2cbfuAXM6OYkBiwYABN17osSDfxTz3Xth2wskYgDe2bNcAoD9w2uk78oImT0xK2KA3/gpZQBkGWSFTJh4DfFCiBiwgQBAmpCJEDPNQiZMuIgYoAX/6CVAzSFXyCx7TcO+WSpioDkfKQNg4OC7NGR2x0zAkDkSH+c3/hfevecNAIDBIbNsuj+fz1tj4vn3DvhjmEt/5NxJDNTZMJiwN7kEAPH3Jqcy/fYtEQP4SBkA6UPmOWaEjIgBAIBbQ6bVqYyQETHAdZsEb/ATygB67lO7Q0bMiBhgAR8pA2BByLT6UcxCRsQAAFAnZtoQMiIGsCls2X9cAoApe9aSfcs/jCligOJ8pAyADTHTgu/JiBiAq/hyP0D4kGkVM7N/CxEDZNwIAMAe1jtkRAzQi4+UAbA5ZFrEjJARMQAA1IsZIYOIAQs/AKTbz8rvab7wL2KAQXykDIBgMVOekBExgNMYAEgXB0JGxAAM3VdcAgBWhcyAmCm/b4kY4E0+UgYAiBhgNR8pA4CkfLRMxAAHVTqNefz26AUFSDrPuwSIGAAAetSP0wwRA6TkI2UAgIgBevEFfwBAxACrOY0BAEQM0IvTGABAxAAAwMd8Mx8RA435SBkAverHTyYTMQA+UgYAiBgAAAARA/yBj5QBACIG6MVHygBYyJdaEDHA6XRyGgNAh/rxpX4RA/CrxqcxdkQAEDEAAAAiBviYj5QBACIG6MUX/AGYzEd4ETEAADSpH1/qFzFAzfXdJQAARAwgYAAAFrl3CUC8AABk4iQGBMzVHr89uqoApNm3qMdJDNgEAMDeRSpOYsAmAAAl9i4/mawPJzFgE7iKj5IBkGnfQsQAzTeB5gFzdosBCBhEDCBgALBvgYgBG4F4AaDfvuX7MCIGEC8CBoB0+xZ9+OlkYCMQMAAIGFJxEgM2AQEDQOp9y0fJRAwgXgBAwCBigNgbQIeAefjy4G4CKLZ3CRgRAzTdADoEDAD19i4BI2KAphuAgAFAvMR0Pvs3lkUM2ATECwCp961OAYOIAZuAgBnB22EA4sW+JWLABrDrNxYwAGTauwQMIgYabwLiBYBM+5aAQcRA801AwACQae8SL4gYaEy8ACBgEDFAio1AvACQLWDECyIGGhMwrz18eXARAKLWknhBxIB4AYBbu0LAIGKA6Su0gAEg1cYoXv7ofPbPk4kYKEy8ACBeeNlAIgYYtZgMXbXFi80AQMDQmYiBRMQLAAsMffNNvDDDnUsAVOYnkwHsI2AQMZDbkI8kGcgBSLX5+YK6ayZiAABYNUu7BIgYYNiG4DTGJg6QaiF1soCIAYQMAKv6Q8ggYoChG4KQcY0AMu1beL1EDFhgACDX5uc0BhEDnE5OGgBY0x9CRuiJGGDohiBk4r9GAICIAQBgLacxjV4jEQMsWWycxgAgZBAxgJBJzvUACL4BChlEDGBwB2BFe7gEok7EADYErwmAwR1EDPQemp3GAJBlzxIyMeedh9YAAADeSURBVF8TEQNs0T1khByAkEHEAAk3BABItQk2DhkRJ2JAyPzkNAKALHsWuPkgv4tLYF0EsG9h33qfkxiwGAGAfQsRA9gQAABEDAgZALBngYgBAEDIIGIAG4LrDQD2LREDFigAsGeBiAGbAgDYsxAxgE0BAOxZiBgAGy6AdRXXV8SABQsA7FuIGMCGAABgGALedXEJrIUA9iz7lgsA2BSsgwDYs+xbLgJgU7AGAmDPsm+5EIDNwboHYL+yfwEAAAAAAAAAAAAAAAAAAAAAAAAAAAAAAAAAAAAAAAAAifwPYtLTpLxbG+UAAAAASUVORK5CYII=;labelPosition=right;align=left;spacing=5;fontSize=14;" parent="VvVo33ZZ8-Vyx2JdQkhz-2" vertex="1">
          <mxGeometry x="7.850000000000023" y="2.5" width="46.3" height="35" as="geometry" />
        </mxCell>
        <mxCell id="orel1sS7INE6aTfyxnH8-6" value="Bare Metal&lt;br style=&quot;font-size: 14px;&quot;&gt;self-managed&lt;br style=&quot;font-size: 14px;&quot;&gt;" style="rounded=0;whiteSpace=wrap;html=1;fontSize=14;fillColor=#FFFFFF;verticalAlign=middle;fontStyle=0;align=right;spacing=5;" parent="1" vertex="1">
          <mxGeometry x="660" y="665" width="160" height="40" as="geometry" />
        </mxCell>
        <mxCell id="wsgeFXquW42oURY6neUt-9" value="" style="verticalLabelPosition=bottom;html=1;verticalAlign=top;align=center;strokeColor=none;fillColor=#00BEF2;shape=mxgraph.azure.server_rack;fontSize=14;aspect=fixed;" parent="1" vertex="1">
          <mxGeometry x="675" y="669" width="32" height="32" as="geometry" />
        </mxCell>
        <mxCell id="PWEL9RJpP9c-zheFYzIe-1" value="&lt;font style=&quot;font-size: 20px&quot;&gt;k8s-supplements&lt;/font&gt;" style="rounded=0;whiteSpace=wrap;html=1;verticalAlign=top;fillColor=#F5F5F5;fontStyle=1" vertex="1" parent="1">
          <mxGeometry x="200" y="455" width="545" height="155" as="geometry" />
        </mxCell>
        <mxCell id="PWEL9RJpP9c-zheFYzIe-2" value="&lt;span style=&quot;font-size: 20px;&quot;&gt;k8s-core&lt;/span&gt;" style="rounded=0;whiteSpace=wrap;html=1;verticalAlign=middle;fontStyle=1;fillColor=#f9f7ed;strokeColor=#36393d;" vertex="1" parent="1">
          <mxGeometry x="287.5" y="505" width="370" height="80" as="geometry" />
        </mxCell>
      </root>
    </mxGraphModel>
  </diagram>
</mxfile>
